PathFileType	4	(X/Y/Z)	Patient4_TMGait_0pt2_01_right_20.trc.trc
DataRate	CameraRate	NumFrames	NumMarkers	Units	OrigDataRate	OrigDataStartFrame	OrigNumFrames
45.901639344262	45.901639344262	4	33	mm	45.901639344262	1	       141
Frame#	Time	Sacral			L.Shoulder			Chest			R.Shoulder			Neck			R.ASIS			L.ASIS			R.Thigh.Superior			R.Thigh.Lateral			R.Thigh.Inferior			R.Patella			L.Thigh.Superior			L.Thigh.Lateral			L.Thigh.Inferior			L.Patella			L.Shank.Superior			L.Shank.Lateral			L.Shank.Inferior			R.Shank.Superior			R.Shank.Lateral			R.Shank.Inferior			R.Heel			R.Midfoot.Superior			R.Midfoot.Lateral			R.Toe			L.Heel			L.Midfoot.Lateral			L.Midfoot.Superior			L.Toe			L.Elbow			L.Wrist			R.Elbow			R.Wrist			
		X1	Y1	Z1	X2	Y2	Z2	X3	Y3	Z3	X4	Y4	Z4	X5	Y5	Z5	X6	Y6	Z6	X7	Y7	Z7	X8	Y8	Z8	X9	Y9	Z9	X10	Y10	Z10	X11	Y11	Z11	X12	Y12	Z12	X13	Y13	Z13	X14	Y14	Z14	X15	Y15	Z15	X16	Y16	Z16	X17	Y17	Z17	X18	Y18	Z18	X19	Y19	Z19	X20	Y20	Z20	X21	Y21	Z21	X22	Y22	Z22	X23	Y23	Z23	X24	Y24	Z24	X25	Y25	Z25	X26	Y26	Z26	X27	Y27	Z27	X28	Y28	Z28	X29	Y29	Z29	X30	Y30	Z30	X31	Y31	Z31	X32	Y32	Z32	X33	Y33	Z33	

1	44.980000000000	662.013017949203	1000.978143711318	449.514653458782	843.510402684512	1426.166804396954	272.088814254359	948.489371921234	1352.630588371083	428.797634932236	873.948111991536	1422.113003904417	608.026373750615	828.633970952935	1486.672636879647	431.393883184093	891.663562996371	924.821112410192	558.762321011943	872.009299572092	955.659681925500	287.454357851353	946.790513049925	732.080478374924	522.543705419512	881.766579120602	618.790889001582	591.069030738293	960.665041680034	564.527380909157	508.980492405488	954.007657598187	449.590489330050	528.761861094362	933.104664401623	749.949770900257	329.914344972884	857.906414064733	620.244732767868	275.840417093240	943.082233350255	553.816035706570	348.460532176540	946.492373994583	481.200675118123	360.687041069951	911.881597207923	406.357284530211	355.620395080825	817.017743698642	297.882144808671	301.927367218995	848.615589016854	186.520313063543	381.440380050193	861.626276498043	395.632563469603	544.500203084436	737.153002658636	391.195266572785	612.431544091066	693.202053138783	287.911383570164	570.803551819037	479.023395802834	274.004800771690	554.490426833297	635.755920228149	186.242329193841	599.418578474918	528.364716251450	210.289511053381	631.701278380652	675.850055712059	64.451798784125	631.832502142891	705.012521972777	37.989503083489	415.978668701075	784.018067369580	35.746926046502	339.953939004983	866.509742893953	95.206610234315	372.689220425755	995.877958486232	41.568847470492	351.799185239176	825.758408028205	1083.974481273091	127.311526689130	938.542029701078	844.939334167124	130.916633584365	876.283139347242	1061.894712536619	708.521824314218	996.144755757151	829.489017369286	705.029276750301	
2	45.001785714286	662.017572143315	998.597524568054	446.481197113403	843.153536217882	1425.572951535671	272.850709475943	947.948356702691	1350.873566359275	429.290059571984	872.410996438320	1418.373972107936	608.931249393272	828.118669835281	1484.575675897804	432.715934045709	892.156522552722	922.935496293546	556.131578955809	873.025100881688	954.134572182822	284.732911700914	948.269674003529	730.365866790741	519.274898284531	885.291319516867	617.103570853198	587.817564441651	963.451317495686	563.505587343688	504.368103660458	957.574008489676	447.861089517372	524.448049851824	934.853022353407	748.615804749114	328.963607487974	860.542767945729	618.217672989983	275.106523087289	945.201802272755	552.233400226487	349.308429079690	948.873772618582	479.130855817536	361.706073286496	912.912072041695	404.271178766401	356.427332843431	816.918427152196	297.062598935443	302.186518126682	846.016428403769	185.456523136833	381.872392452849	864.164138380615	394.706612229850	541.169202686994	739.559451253990	393.180704793469	609.353837934130	693.580115964477	290.098266891177	568.516819234044	478.601687732151	279.774288400499	552.469595084220	634.512465971176	190.431709264445	598.487669706608	527.405024304571	216.711174721269	630.629620823521	673.044734271135	68.487575270962	632.979546074747	700.694611795559	38.116631698665	415.869320489464	779.706303972164	35.763407943568	339.945851331284	862.272508287331	95.094720786501	372.843300888109	991.585262799138	41.265298085987	351.813906310946	832.830893850327	1084.929103231999	124.246058232753	961.632354033269	856.395538895346	127.219755853956	858.021298265947	1060.397074023998	709.172247648231	957.229362467236	821.630667598212	708.197364619314	
3	45.023571428571	661.911435926650	996.346673290139	443.410854902486	843.107304298394	1425.060277237772	273.649192309621	947.458618588002	1349.145829546681	429.956752815947	870.723109656345	1414.741873179853	609.886400624171	827.701726547969	1482.568355782899	434.064688476801	892.403682607307	921.145188801481	553.638422970986	874.038167459434	952.643532139953	282.171375910229	949.628437332106	728.831832182660	516.164543576570	888.662149612615	615.593842612657	584.770272675766	966.023530290742	562.619617753630	499.929563585939	961.046432783280	446.390141076679	520.357362831509	936.476460483059	747.255227979618	328.043590845276	862.950517429153	616.223695390564	274.400565500167	947.085352973301	550.641111051735	350.115367733286	950.972631217567	477.075745799847	362.690398201016	913.680601479837	402.212050905519	357.205985004998	816.563293881381	296.257657809479	302.439818284047	843.226359253083	184.412470300745	382.284246383787	866.908132679611	393.710221293185	538.091624007598	742.140173244383	394.290500976423	606.490813119911	694.853474676752	291.125692514572	566.466875609441	479.099824474318	282.759052010353	550.627105924127	634.817751969325	193.073855660232	597.694333506929	527.798605253657	220.742655460394	629.723005885138	672.744341645109	71.366349990128	634.278545424448	696.208873120637	38.243563371356	415.758009725591	775.231504125317	35.781928278450	339.931335727008	857.868171686626	94.982310566248	372.987869819253	987.126441590697	40.968610200210	351.819941033627	840.613933968745	1086.253605328202	120.961019743797	985.578507226872	868.922522078355	123.615689556266	839.125903446001	1059.365878914136	709.715451934166	917.606537377707	814.620243466147	711.085596434908	
4	45.045357142857	661.649266779926	994.400975720305	440.396599119466	843.526958652709	1424.700496274901	274.477087910846	947.057881008365	1347.550239823319	430.861632919206	868.865775917854	1411.434959180124	610.873252420203	827.451432511577	1480.790597375796	435.397245190461	892.268649147196	919.603322327145	551.478776425017	875.020772695711	951.276396207130	279.957479739475	950.728646918784	727.651709087316	513.450175749177	891.622746388811	614.424668757517	582.161220962055	968.170881011045	562.003202522887	495.981813840308	964.245855744798	445.398541054009	516.800526280378	937.831777293994	745.916822072712	327.249265867623	864.914175836411	614.375372667235	273.778673194711	948.511323533584	549.108442070937	350.865253692607	952.533047598166	475.135550732033	363.612964609175	914.000885631821	400.288774936603	357.928692524538	815.826783894839	295.513155711866	302.681199525397	840.247550998014	183.443807262114	382.656460940994	869.858768422556	392.707674879465	535.529646062554	744.948844681804	394.144127522502	604.093484917931	697.443213681489	290.528280312078	564.845893622754	481.090050226163	281.749811461553	549.149590351912	637.436833526516	193.514002233168	597.134430521036	530.288202584965	221.303711986057	629.108611047746	676.112896965143	72.635592119516	635.709994765698	691.643394326687	38.363839599173	415.648026962340	770.683480046153	35.801097257600	339.909239989111	853.382915344623	94.874617320881	373.113874914382	982.589906577715	40.693023152697	351.815559981921	849.138848526790	1088.076539622272	117.522241027816	1009.826495106046	882.517191740207	120.326414874826	820.084396604754	1059.043339012189	710.057958412957	878.594226969753	809.061075340568	713.449112666129	
